<mxfile host="app.diagrams.net" agent="Mozilla/5.0 (Macintosh; Intel Mac OS X 10_15_7) AppleWebKit/537.36 (KHTML, like Gecko) Chrome/129.0.0.0 Safari/537.36" version="24.7.17">
  <diagram name="Страница — 1" id="p_PHPo7FUE6MIuyjmE71">
    <mxGraphModel dx="794" dy="481" grid="1" gridSize="10" guides="1" tooltips="1" connect="1" arrows="1" fold="1" page="1" pageScale="1" pageWidth="827" pageHeight="1169" math="0" shadow="0">
      <root>
        <mxCell id="0" />
        <mxCell id="1" parent="0" />
        <mxCell id="LcrDpUHQ1Agy9LRHcFRK-7" value="" style="group" parent="1" vertex="1" connectable="0">
          <mxGeometry x="921" y="40" width="240" height="225" as="geometry" />
        </mxCell>
        <mxCell id="LcrDpUHQ1Agy9LRHcFRK-1" value="vk_group_setting" style="swimlane;fontStyle=0;childLayout=stackLayout;horizontal=1;startSize=30;horizontalStack=0;resizeParent=1;resizeParentMax=0;resizeLast=0;collapsible=1;marginBottom=0;whiteSpace=wrap;html=1;container=0;" parent="LcrDpUHQ1Agy9LRHcFRK-7" vertex="1">
          <mxGeometry width="240" height="225" as="geometry" />
        </mxCell>
        <mxCell id="LcrDpUHQ1Agy9LRHcFRK-5" value="repost_count" style="text;strokeColor=none;fillColor=none;align=left;verticalAlign=middle;spacingLeft=4;spacingRight=4;overflow=hidden;points=[[0,0.5],[1,0.5]];portConstraint=eastwest;rotatable=0;whiteSpace=wrap;html=1;" parent="LcrDpUHQ1Agy9LRHcFRK-7" vertex="1">
          <mxGeometry y="127" width="240" height="30" as="geometry" />
        </mxCell>
        <mxCell id="LcrDpUHQ1Agy9LRHcFRK-6" value="comment_count" style="text;strokeColor=none;fillColor=none;align=left;verticalAlign=middle;spacingLeft=4;spacingRight=4;overflow=hidden;points=[[0,0.5],[1,0.5]];portConstraint=eastwest;rotatable=0;whiteSpace=wrap;html=1;" parent="LcrDpUHQ1Agy9LRHcFRK-7" vertex="1">
          <mxGeometry y="165" width="240" height="30" as="geometry" />
        </mxCell>
        <mxCell id="LcrDpUHQ1Agy9LRHcFRK-2" value="group_id int" style="text;strokeColor=none;fillColor=none;align=left;verticalAlign=middle;spacingLeft=4;spacingRight=4;overflow=hidden;points=[[0,0.5],[1,0.5]];portConstraint=eastwest;rotatable=0;whiteSpace=wrap;html=1;" parent="LcrDpUHQ1Agy9LRHcFRK-7" vertex="1">
          <mxGeometry y="30" width="240" height="30" as="geometry" />
        </mxCell>
        <mxCell id="LcrDpUHQ1Agy9LRHcFRK-3" value="min_count_post" style="text;strokeColor=none;fillColor=none;align=left;verticalAlign=middle;spacingLeft=4;spacingRight=4;overflow=hidden;points=[[0,0.5],[1,0.5]];portConstraint=eastwest;rotatable=0;whiteSpace=wrap;html=1;" parent="LcrDpUHQ1Agy9LRHcFRK-7" vertex="1">
          <mxGeometry y="60" width="240" height="30" as="geometry" />
        </mxCell>
        <mxCell id="LcrDpUHQ1Agy9LRHcFRK-4" value="view_count" style="text;strokeColor=none;fillColor=none;align=left;verticalAlign=middle;spacingLeft=4;spacingRight=4;overflow=hidden;points=[[0,0.5],[1,0.5]];portConstraint=eastwest;rotatable=0;whiteSpace=wrap;html=1;" parent="LcrDpUHQ1Agy9LRHcFRK-7" vertex="1">
          <mxGeometry y="90" width="240" height="30" as="geometry" />
        </mxCell>
        <mxCell id="zqIRlWFYSArpEsUGD6Mp-1" value="" style="group" parent="1" vertex="1" connectable="0">
          <mxGeometry x="160" y="320" width="240" height="200" as="geometry" />
        </mxCell>
        <mxCell id="dV2cxcHAND624k17Xs4t-15" value="" style="group" parent="zqIRlWFYSArpEsUGD6Mp-1" vertex="1" connectable="0">
          <mxGeometry width="240" height="200" as="geometry" />
        </mxCell>
        <mxCell id="4G09n5Bn_E0YaMBqXWpZ-1" value="vk_group (Группа вконтакте)" style="swimlane;fontStyle=0;childLayout=stackLayout;horizontal=1;startSize=30;horizontalStack=0;resizeParent=1;resizeParentMax=0;resizeLast=0;collapsible=1;marginBottom=0;whiteSpace=wrap;html=1;container=0;" parent="dV2cxcHAND624k17Xs4t-15" vertex="1">
          <mxGeometry width="240" height="200" as="geometry" />
        </mxCell>
        <mxCell id="ncfUvAkxQ1azvjL6roFB-39" value="user_id unique not null" style="text;strokeColor=none;fillColor=none;align=left;verticalAlign=middle;spacingLeft=4;spacingRight=4;overflow=hidden;points=[[0,0.5],[1,0.5]];portConstraint=eastwest;rotatable=0;whiteSpace=wrap;html=1;" parent="dV2cxcHAND624k17Xs4t-15" vertex="1">
          <mxGeometry y="127" width="240" height="30" as="geometry" />
        </mxCell>
        <mxCell id="4G09n5Bn_E0YaMBqXWpZ-2" value="id Int" style="text;strokeColor=none;fillColor=none;align=left;verticalAlign=middle;spacingLeft=4;spacingRight=4;overflow=hidden;points=[[0,0.5],[1,0.5]];portConstraint=eastwest;rotatable=0;whiteSpace=wrap;html=1;" parent="dV2cxcHAND624k17Xs4t-15" vertex="1">
          <mxGeometry y="30" width="240" height="30" as="geometry" />
        </mxCell>
        <mxCell id="4G09n5Bn_E0YaMBqXWpZ-3" value="name varchar(256)" style="text;strokeColor=none;fillColor=none;align=left;verticalAlign=middle;spacingLeft=4;spacingRight=4;overflow=hidden;points=[[0,0.5],[1,0.5]];portConstraint=eastwest;rotatable=0;whiteSpace=wrap;html=1;" parent="dV2cxcHAND624k17Xs4t-15" vertex="1">
          <mxGeometry y="60" width="240" height="30" as="geometry" />
        </mxCell>
        <mxCell id="4G09n5Bn_E0YaMBqXWpZ-4" value="domain varchar (256) unique not null" style="text;strokeColor=none;fillColor=none;align=left;verticalAlign=middle;spacingLeft=4;spacingRight=4;overflow=hidden;points=[[0,0.5],[1,0.5]];portConstraint=eastwest;rotatable=0;whiteSpace=wrap;html=1;" parent="dV2cxcHAND624k17Xs4t-15" vertex="1">
          <mxGeometry y="90" width="240" height="30" as="geometry" />
        </mxCell>
        <mxCell id="dV2cxcHAND624k17Xs4t-1" value="" style="group" parent="1" vertex="1" connectable="0">
          <mxGeometry x="600" y="40" width="240" height="230" as="geometry" />
        </mxCell>
        <mxCell id="dV2cxcHAND624k17Xs4t-2" value="shown_hot_wall_post_user" style="swimlane;fontStyle=0;childLayout=stackLayout;horizontal=1;startSize=30;horizontalStack=0;resizeParent=1;resizeParentMax=0;resizeLast=0;collapsible=1;marginBottom=0;whiteSpace=wrap;html=1;container=0;" parent="dV2cxcHAND624k17Xs4t-1" vertex="1">
          <mxGeometry width="240" height="230" as="geometry" />
        </mxCell>
        <mxCell id="dV2cxcHAND624k17Xs4t-5" value="wall_post_id int" style="text;strokeColor=none;fillColor=none;align=left;verticalAlign=middle;spacingLeft=4;spacingRight=4;overflow=hidden;points=[[0,0.5],[1,0.5]];portConstraint=eastwest;rotatable=0;whiteSpace=wrap;html=1;" parent="dV2cxcHAND624k17Xs4t-1" vertex="1">
          <mxGeometry y="30" width="240" height="30" as="geometry" />
        </mxCell>
        <mxCell id="dV2cxcHAND624k17Xs4t-6" value="user_id int&lt;div&gt;&lt;br&gt;&lt;/div&gt;" style="text;strokeColor=none;fillColor=none;align=left;verticalAlign=middle;spacingLeft=4;spacingRight=4;overflow=hidden;points=[[0,0.5],[1,0.5]];portConstraint=eastwest;rotatable=0;whiteSpace=wrap;html=1;" parent="dV2cxcHAND624k17Xs4t-1" vertex="1">
          <mxGeometry y="60" width="240" height="30" as="geometry" />
        </mxCell>
        <mxCell id="dV2cxcHAND624k17Xs4t-8" value="" style="group" parent="1" vertex="1" connectable="0">
          <mxGeometry x="160" y="40" width="240" height="225" as="geometry" />
        </mxCell>
        <mxCell id="dV2cxcHAND624k17Xs4t-9" value="wall_post" style="swimlane;fontStyle=0;childLayout=stackLayout;horizontal=1;startSize=30;horizontalStack=0;resizeParent=1;resizeParentMax=0;resizeLast=0;collapsible=1;marginBottom=0;whiteSpace=wrap;html=1;container=0;" parent="dV2cxcHAND624k17Xs4t-8" vertex="1">
          <mxGeometry width="240" height="225" as="geometry" />
        </mxCell>
        <mxCell id="dV2cxcHAND624k17Xs4t-10" value="comment_count" style="text;strokeColor=none;fillColor=none;align=left;verticalAlign=middle;spacingLeft=4;spacingRight=4;overflow=hidden;points=[[0,0.5],[1,0.5]];portConstraint=eastwest;rotatable=0;whiteSpace=wrap;html=1;" parent="dV2cxcHAND624k17Xs4t-8" vertex="1">
          <mxGeometry y="165" width="240" height="30" as="geometry" />
        </mxCell>
        <mxCell id="dV2cxcHAND624k17Xs4t-11" value="wall_post_id int" style="text;strokeColor=none;fillColor=none;align=left;verticalAlign=middle;spacingLeft=4;spacingRight=4;overflow=hidden;points=[[0,0.5],[1,0.5]];portConstraint=eastwest;rotatable=0;whiteSpace=wrap;html=1;" parent="dV2cxcHAND624k17Xs4t-8" vertex="1">
          <mxGeometry y="30" width="240" height="30" as="geometry" />
        </mxCell>
        <mxCell id="dV2cxcHAND624k17Xs4t-12" value="group_id" style="text;strokeColor=none;fillColor=none;align=left;verticalAlign=middle;spacingLeft=4;spacingRight=4;overflow=hidden;points=[[0,0.5],[1,0.5]];portConstraint=eastwest;rotatable=0;whiteSpace=wrap;html=1;" parent="dV2cxcHAND624k17Xs4t-8" vertex="1">
          <mxGeometry y="60" width="240" height="30" as="geometry" />
        </mxCell>
        <mxCell id="dV2cxcHAND624k17Xs4t-13" value="" style="edgeStyle=orthogonalEdgeStyle;fontSize=12;html=1;endArrow=ERoneToMany;rounded=1;entryX=0;entryY=0.5;entryDx=0;entryDy=0;exitX=1;exitY=0.5;exitDx=0;exitDy=0;curved=0;" parent="1" source="dV2cxcHAND624k17Xs4t-11" target="dV2cxcHAND624k17Xs4t-5" edge="1">
          <mxGeometry width="100" height="100" relative="1" as="geometry">
            <mxPoint x="590" y="270" as="sourcePoint" />
            <mxPoint x="690" y="170" as="targetPoint" />
          </mxGeometry>
        </mxCell>
        <mxCell id="dV2cxcHAND624k17Xs4t-14" value="" style="edgeStyle=orthogonalEdgeStyle;fontSize=12;html=1;endArrow=ERoneToMany;rounded=1;curved=0;exitX=0;exitY=0.5;exitDx=0;exitDy=0;" parent="1" source="ncfUvAkxQ1azvjL6roFB-26" edge="1">
          <mxGeometry width="100" height="100" relative="1" as="geometry">
            <mxPoint x="760" y="335" as="sourcePoint" />
            <mxPoint x="600" y="110" as="targetPoint" />
            <Array as="points">
              <mxPoint x="480" y="365" />
              <mxPoint x="480" y="110" />
            </Array>
          </mxGeometry>
        </mxCell>
        <mxCell id="dV2cxcHAND624k17Xs4t-17" value="" style="edgeStyle=orthogonalEdgeStyle;fontSize=12;html=1;endArrow=ERoneToMany;rounded=1;exitX=1;exitY=0.5;exitDx=0;exitDy=0;entryX=1;entryY=0.5;entryDx=0;entryDy=0;" parent="1" source="dV2cxcHAND624k17Xs4t-12" target="4G09n5Bn_E0YaMBqXWpZ-2" edge="1">
          <mxGeometry width="100" height="100" relative="1" as="geometry">
            <mxPoint x="420" y="350" as="sourcePoint" />
            <mxPoint x="480" y="390" as="targetPoint" />
            <Array as="points">
              <mxPoint x="440" y="115" />
              <mxPoint x="440" y="365" />
            </Array>
          </mxGeometry>
        </mxCell>
        <mxCell id="dV2cxcHAND624k17Xs4t-20" value="" style="group" parent="1" vertex="1" connectable="0">
          <mxGeometry x="160" y="560" width="240" height="200" as="geometry" />
        </mxCell>
        <mxCell id="dV2cxcHAND624k17Xs4t-21" value="" style="group" parent="dV2cxcHAND624k17Xs4t-20" vertex="1" connectable="0">
          <mxGeometry width="240" height="200" as="geometry" />
        </mxCell>
        <mxCell id="dV2cxcHAND624k17Xs4t-22" value="organization" style="swimlane;fontStyle=0;childLayout=stackLayout;horizontal=1;startSize=30;horizontalStack=0;resizeParent=1;resizeParentMax=0;resizeLast=0;collapsible=1;marginBottom=0;whiteSpace=wrap;html=1;container=0;" parent="dV2cxcHAND624k17Xs4t-21" vertex="1">
          <mxGeometry width="240" height="160" as="geometry" />
        </mxCell>
        <mxCell id="dV2cxcHAND624k17Xs4t-24" value="id Int" style="text;strokeColor=none;fillColor=none;align=left;verticalAlign=middle;spacingLeft=4;spacingRight=4;overflow=hidden;points=[[0,0.5],[1,0.5]];portConstraint=eastwest;rotatable=0;whiteSpace=wrap;html=1;" parent="dV2cxcHAND624k17Xs4t-21" vertex="1">
          <mxGeometry y="30" width="240" height="30" as="geometry" />
        </mxCell>
        <mxCell id="dV2cxcHAND624k17Xs4t-25" value="name varchar(256)" style="text;strokeColor=none;fillColor=none;align=left;verticalAlign=middle;spacingLeft=4;spacingRight=4;overflow=hidden;points=[[0,0.5],[1,0.5]];portConstraint=eastwest;rotatable=0;whiteSpace=wrap;html=1;" parent="dV2cxcHAND624k17Xs4t-21" vertex="1">
          <mxGeometry y="60" width="240" height="30" as="geometry" />
        </mxCell>
        <mxCell id="dV2cxcHAND624k17Xs4t-27" value="" style="group" parent="1" vertex="1" connectable="0">
          <mxGeometry x="600" y="320" width="251" height="280" as="geometry" />
        </mxCell>
        <mxCell id="dV2cxcHAND624k17Xs4t-30" value="" style="group" parent="dV2cxcHAND624k17Xs4t-27" vertex="1" connectable="0">
          <mxGeometry width="251" height="280" as="geometry" />
        </mxCell>
        <mxCell id="dV2cxcHAND624k17Xs4t-31" value="" style="group" parent="dV2cxcHAND624k17Xs4t-30" vertex="1" connectable="0">
          <mxGeometry width="251" height="280" as="geometry" />
        </mxCell>
        <mxCell id="ncfUvAkxQ1azvjL6roFB-25" value="user" style="swimlane;fontStyle=0;childLayout=stackLayout;horizontal=1;startSize=30;horizontalStack=0;resizeParent=1;resizeParentMax=0;resizeLast=0;collapsible=1;marginBottom=0;whiteSpace=wrap;html=1;movable=1;resizable=1;rotatable=1;deletable=1;editable=1;locked=0;connectable=1;container=0;" parent="dV2cxcHAND624k17Xs4t-31" vertex="1">
          <mxGeometry x="1" width="239" height="280" as="geometry" />
        </mxCell>
        <mxCell id="ncfUvAkxQ1azvjL6roFB-26" value="id int" style="text;strokeColor=none;fillColor=none;align=left;verticalAlign=middle;spacingLeft=4;spacingRight=4;overflow=hidden;points=[[0,0.5],[1,0.5]];portConstraint=eastwest;rotatable=1;whiteSpace=wrap;html=1;movable=1;resizable=1;deletable=1;editable=1;locked=0;connectable=1;" parent="dV2cxcHAND624k17Xs4t-31" vertex="1">
          <mxGeometry x="1" y="30" width="250" height="30" as="geometry" />
        </mxCell>
        <mxCell id="zqIRlWFYSArpEsUGD6Mp-3" value="telegram_user_id int" style="text;strokeColor=none;fillColor=none;align=left;verticalAlign=middle;spacingLeft=4;spacingRight=4;overflow=hidden;points=[[0,0.5],[1,0.5]];portConstraint=eastwest;rotatable=1;whiteSpace=wrap;html=1;movable=1;resizable=1;deletable=1;editable=1;locked=0;connectable=1;" parent="dV2cxcHAND624k17Xs4t-31" vertex="1">
          <mxGeometry y="59" width="250" height="30" as="geometry" />
        </mxCell>
        <mxCell id="dV2cxcHAND624k17Xs4t-28" value="organization_id unique not null" style="text;strokeColor=none;fillColor=none;align=left;verticalAlign=middle;spacingLeft=4;spacingRight=4;overflow=hidden;points=[[0,0.5],[1,0.5]];portConstraint=eastwest;rotatable=0;whiteSpace=wrap;html=1;" parent="1" vertex="1">
          <mxGeometry x="160" y="478" width="240" height="30" as="geometry" />
        </mxCell>
        <mxCell id="dV2cxcHAND624k17Xs4t-29" value="" style="edgeStyle=orthogonalEdgeStyle;fontSize=12;html=1;endArrow=ERoneToMany;rounded=1;entryX=1;entryY=0.5;entryDx=0;entryDy=0;exitX=1;exitY=0.5;exitDx=0;exitDy=0;" parent="1" source="dV2cxcHAND624k17Xs4t-24" target="dV2cxcHAND624k17Xs4t-28" edge="1">
          <mxGeometry width="100" height="100" relative="1" as="geometry">
            <mxPoint x="480" y="550" as="sourcePoint" />
            <mxPoint x="580" y="450" as="targetPoint" />
            <Array as="points">
              <mxPoint x="440" y="605" />
              <mxPoint x="440" y="493" />
            </Array>
          </mxGeometry>
        </mxCell>
        <mxCell id="dV2cxcHAND624k17Xs4t-42" value="" style="group" parent="1" vertex="1" connectable="0">
          <mxGeometry x="540" y="610" width="241" height="200" as="geometry" />
        </mxCell>
        <mxCell id="dV2cxcHAND624k17Xs4t-43" value="" style="group" parent="dV2cxcHAND624k17Xs4t-42" vertex="1" connectable="0">
          <mxGeometry x="31" y="24" width="241" height="200" as="geometry" />
        </mxCell>
        <mxCell id="dV2cxcHAND624k17Xs4t-34" value="" style="group" parent="dV2cxcHAND624k17Xs4t-43" vertex="1" connectable="0">
          <mxGeometry x="1" width="240" height="200" as="geometry" />
        </mxCell>
        <mxCell id="dV2cxcHAND624k17Xs4t-35" value="" style="group" parent="dV2cxcHAND624k17Xs4t-34" vertex="1" connectable="0">
          <mxGeometry width="240" height="200" as="geometry" />
        </mxCell>
        <mxCell id="dV2cxcHAND624k17Xs4t-41" value="" style="group" parent="dV2cxcHAND624k17Xs4t-35" vertex="1" connectable="0">
          <mxGeometry x="-1" width="241" height="160" as="geometry" />
        </mxCell>
        <mxCell id="dV2cxcHAND624k17Xs4t-36" value="user_organization_intersect" style="swimlane;fontStyle=0;childLayout=stackLayout;horizontal=1;startSize=30;horizontalStack=0;resizeParent=1;resizeParentMax=0;resizeLast=0;collapsible=1;marginBottom=0;whiteSpace=wrap;html=1;container=0;" parent="dV2cxcHAND624k17Xs4t-41" vertex="1">
          <mxGeometry x="2" width="240" height="160" as="geometry" />
        </mxCell>
        <mxCell id="dV2cxcHAND624k17Xs4t-37" value="user_id Int" style="text;strokeColor=none;fillColor=none;align=left;verticalAlign=middle;spacingLeft=4;spacingRight=4;overflow=hidden;points=[[0,0.5],[1,0.5]];portConstraint=eastwest;rotatable=0;whiteSpace=wrap;html=1;" parent="dV2cxcHAND624k17Xs4t-41" vertex="1">
          <mxGeometry x="1" y="30" width="240" height="30" as="geometry" />
        </mxCell>
        <mxCell id="dV2cxcHAND624k17Xs4t-38" value="organization_id" style="text;strokeColor=none;fillColor=none;align=left;verticalAlign=middle;spacingLeft=4;spacingRight=4;overflow=hidden;points=[[0,0.5],[1,0.5]];portConstraint=eastwest;rotatable=0;whiteSpace=wrap;html=1;" parent="dV2cxcHAND624k17Xs4t-41" vertex="1">
          <mxGeometry y="57" width="240" height="30" as="geometry" />
        </mxCell>
        <mxCell id="dV2cxcHAND624k17Xs4t-40" value="superadmin boolean" style="text;strokeColor=none;fillColor=none;align=left;verticalAlign=middle;spacingLeft=4;spacingRight=4;overflow=hidden;points=[[0,0.5],[1,0.5]];portConstraint=eastwest;rotatable=0;whiteSpace=wrap;html=1;" parent="dV2cxcHAND624k17Xs4t-43" vertex="1">
          <mxGeometry y="87" width="240" height="30" as="geometry" />
        </mxCell>
        <mxCell id="dV2cxcHAND624k17Xs4t-44" value="" style="edgeStyle=orthogonalEdgeStyle;fontSize=12;html=1;endArrow=ERoneToMany;rounded=1;entryX=0;entryY=0.5;entryDx=0;entryDy=0;exitX=1;exitY=0.5;exitDx=0;exitDy=0;" parent="1" source="dV2cxcHAND624k17Xs4t-25" target="dV2cxcHAND624k17Xs4t-38" edge="1">
          <mxGeometry width="100" height="100" relative="1" as="geometry">
            <mxPoint x="430" y="620" as="sourcePoint" />
            <mxPoint x="530" y="520" as="targetPoint" />
            <Array as="points">
              <mxPoint x="480" y="635" />
              <mxPoint x="480" y="706" />
            </Array>
          </mxGeometry>
        </mxCell>
        <mxCell id="dV2cxcHAND624k17Xs4t-45" value="" style="edgeStyle=orthogonalEdgeStyle;fontSize=12;html=1;endArrow=ERoneToMany;rounded=1;curved=0;entryX=0;entryY=0.5;entryDx=0;entryDy=0;exitX=-0.012;exitY=0.2;exitDx=0;exitDy=0;exitPerimeter=0;" parent="1" source="zqIRlWFYSArpEsUGD6Mp-3" target="dV2cxcHAND624k17Xs4t-37" edge="1">
          <mxGeometry width="100" height="100" relative="1" as="geometry">
            <mxPoint x="490" y="620" as="sourcePoint" />
            <mxPoint x="590" y="520" as="targetPoint" />
            <Array as="points">
              <mxPoint x="520" y="385" />
              <mxPoint x="520" y="679" />
            </Array>
          </mxGeometry>
        </mxCell>
        <mxCell id="XU7Z-DliqY29oCEXTue2-1" value="" style="group" parent="1" vertex="1" connectable="0">
          <mxGeometry x="921" y="320" width="242" height="210" as="geometry" />
        </mxCell>
        <mxCell id="XU7Z-DliqY29oCEXTue2-2" value="" style="group" parent="XU7Z-DliqY29oCEXTue2-1" vertex="1" connectable="0">
          <mxGeometry x="1" width="241" height="210" as="geometry" />
        </mxCell>
        <mxCell id="XU7Z-DliqY29oCEXTue2-3" value="" style="group" parent="XU7Z-DliqY29oCEXTue2-2" vertex="1" connectable="0">
          <mxGeometry width="241" height="210" as="geometry" />
        </mxCell>
        <mxCell id="XU7Z-DliqY29oCEXTue2-4" value="" style="group" parent="XU7Z-DliqY29oCEXTue2-3" vertex="1" connectable="0">
          <mxGeometry x="-1" width="242" height="210" as="geometry" />
        </mxCell>
        <mxCell id="XU7Z-DliqY29oCEXTue2-5" value="user_google_sheet" style="swimlane;fontStyle=0;childLayout=stackLayout;horizontal=1;startSize=30;horizontalStack=0;resizeParent=1;resizeParentMax=0;resizeLast=0;collapsible=1;marginBottom=0;whiteSpace=wrap;html=1;container=0;" parent="XU7Z-DliqY29oCEXTue2-4" vertex="1">
          <mxGeometry x="2" width="240" height="210" as="geometry" />
        </mxCell>
        <mxCell id="XU7Z-DliqY29oCEXTue2-6" value="user_id Int" style="text;strokeColor=none;fillColor=none;align=left;verticalAlign=middle;spacingLeft=4;spacingRight=4;overflow=hidden;points=[[0,0.5],[1,0.5]];portConstraint=eastwest;rotatable=0;whiteSpace=wrap;html=1;" parent="XU7Z-DliqY29oCEXTue2-4" vertex="1">
          <mxGeometry x="1" y="30" width="240" height="30" as="geometry" />
        </mxCell>
        <mxCell id="XU7Z-DliqY29oCEXTue2-7" value="spread_sheet_type" style="text;strokeColor=none;fillColor=none;align=left;verticalAlign=middle;spacingLeft=4;spacingRight=4;overflow=hidden;points=[[0,0.5],[1,0.5]];portConstraint=eastwest;rotatable=0;whiteSpace=wrap;html=1;" parent="XU7Z-DliqY29oCEXTue2-4" vertex="1">
          <mxGeometry y="57" width="240" height="33" as="geometry" />
        </mxCell>
        <mxCell id="XU7Z-DliqY29oCEXTue2-8" value="spread_sheet_id" style="text;strokeColor=none;fillColor=none;align=left;verticalAlign=middle;spacingLeft=4;spacingRight=4;overflow=hidden;points=[[0,0.5],[1,0.5]];portConstraint=eastwest;rotatable=0;whiteSpace=wrap;html=1;" parent="XU7Z-DliqY29oCEXTue2-1" vertex="1">
          <mxGeometry y="87" width="240" height="30" as="geometry" />
        </mxCell>
        <mxCell id="XU7Z-DliqY29oCEXTue2-9" value="row_range" style="text;strokeColor=none;fillColor=none;align=left;verticalAlign=middle;spacingLeft=4;spacingRight=4;overflow=hidden;points=[[0,0.5],[1,0.5]];portConstraint=eastwest;rotatable=0;whiteSpace=wrap;html=1;" parent="XU7Z-DliqY29oCEXTue2-1" vertex="1">
          <mxGeometry x="1" y="120" width="240" height="30" as="geometry" />
        </mxCell>
        <mxCell id="M8mMk8M6-J2N1SDsIo_3-1" value="" style="group" vertex="1" connectable="0" parent="1">
          <mxGeometry x="880" y="620" width="260" height="230" as="geometry" />
        </mxCell>
        <mxCell id="M8mMk8M6-J2N1SDsIo_3-2" value="" style="group" vertex="1" connectable="0" parent="M8mMk8M6-J2N1SDsIo_3-1">
          <mxGeometry x="30" y="20.4" width="230" height="209.6" as="geometry" />
        </mxCell>
        <mxCell id="M8mMk8M6-J2N1SDsIo_3-3" value="" style="group" vertex="1" connectable="0" parent="M8mMk8M6-J2N1SDsIo_3-2">
          <mxGeometry x="0.954356846473029" width="229.04564315352695" height="209.6" as="geometry" />
        </mxCell>
        <mxCell id="M8mMk8M6-J2N1SDsIo_3-4" value="" style="group" vertex="1" connectable="0" parent="M8mMk8M6-J2N1SDsIo_3-3">
          <mxGeometry width="229.04564315352695" height="209.6" as="geometry" />
        </mxCell>
        <mxCell id="M8mMk8M6-J2N1SDsIo_3-5" value="" style="group" vertex="1" connectable="0" parent="M8mMk8M6-J2N1SDsIo_3-4">
          <mxGeometry x="-0.9543568464730289" width="229.99999999999997" height="167.67999999999998" as="geometry" />
        </mxCell>
        <mxCell id="M8mMk8M6-J2N1SDsIo_3-7" value="telegram_user_id Int" style="text;strokeColor=none;fillColor=none;align=left;verticalAlign=middle;spacingLeft=4;spacingRight=4;overflow=hidden;points=[[0,0.5],[1,0.5]];portConstraint=eastwest;rotatable=0;whiteSpace=wrap;html=1;" vertex="1" parent="M8mMk8M6-J2N1SDsIo_3-5">
          <mxGeometry x="0.9543568464730289" y="-5.239999999999999" width="229.04564315352695" height="31.44" as="geometry" />
        </mxCell>
        <mxCell id="M8mMk8M6-J2N1SDsIo_3-8" value="bot_id Int" style="text;strokeColor=none;fillColor=none;align=left;verticalAlign=middle;spacingLeft=4;spacingRight=4;overflow=hidden;points=[[0,0.5],[1,0.5]];portConstraint=eastwest;rotatable=0;whiteSpace=wrap;html=1;" vertex="1" parent="M8mMk8M6-J2N1SDsIo_3-5">
          <mxGeometry y="20.959999999999997" width="229.04564315352695" height="31.44" as="geometry" />
        </mxCell>
        <mxCell id="M8mMk8M6-J2N1SDsIo_3-9" value="chat_id int" style="text;strokeColor=none;fillColor=none;align=left;verticalAlign=middle;spacingLeft=4;spacingRight=4;overflow=hidden;points=[[0,0.5],[1,0.5]];portConstraint=eastwest;rotatable=0;whiteSpace=wrap;html=1;" vertex="1" parent="M8mMk8M6-J2N1SDsIo_3-2">
          <mxGeometry y="48.208" width="229.04564315352695" height="31.44" as="geometry" />
        </mxCell>
        <mxCell id="M8mMk8M6-J2N1SDsIo_3-6" value="telegram_user_chat" style="swimlane;fontStyle=0;childLayout=stackLayout;horizontal=1;startSize=30;horizontalStack=0;resizeParent=1;resizeParentMax=0;resizeLast=0;collapsible=1;marginBottom=0;whiteSpace=wrap;html=1;container=0;" vertex="1" parent="M8mMk8M6-J2N1SDsIo_3-1">
          <mxGeometry x="30.588235294117645" y="-9.35" width="229.41176470588232" height="136" as="geometry" />
        </mxCell>
      </root>
    </mxGraphModel>
  </diagram>
</mxfile>
